%
M48
M72
T01C0.0120
T02C0.0200
T03C0.0400
T04C0.1300
%
T01
X5695Y4995
X6375Y4875
X6375Y4545
X6790Y6210
X7245Y6845
X7345Y7545
X6792Y7632
X6670Y8095
X5785Y7695
X5785Y7375
X5745Y6795
X7635Y6375
X8125Y6205
X8295Y6845
X8470Y7370
X8095Y7480
X8970Y7870
X9762Y8005
X9988Y8305
X9975Y9465
X11255Y9705
X11375Y10445
X14225Y10125
X15975Y9640
X16420Y9620
X17585Y9435
X17595Y8945
X18595Y9324
X19170Y7870
X18670Y7370
X18295Y7480
X18495Y6845
X18325Y6205
X17835Y6375
X17445Y6845
X17545Y7545
X16992Y7632
X16870Y8095
X15985Y7695
X15985Y7375
X15945Y6795
X16990Y6210
X16575Y4875
X16575Y4545
X15895Y4995
X13375Y6235
X11845Y6295
X10375Y5420
X9375Y4875
X9395Y4020
X8985Y6705
X7395Y8945
X7385Y9435
X6220Y9620
X5775Y9640
X4025Y10125
X3175Y6235
X8395Y9324
X9395Y14220
X9375Y15075
X10375Y15620
X11845Y16495
X13375Y16435
X15945Y16995
X15985Y17575
X15985Y17895
X16870Y18295
X16992Y17832
X17545Y17745
X18295Y17680
X18670Y17570
X18495Y17045
X18325Y16405
X17835Y16575
X17445Y17045
X16990Y16410
X16575Y15075
X16575Y14745
X15895Y15195
X19575Y15075
X19595Y14220
X20575Y15620
X22045Y16495
X23575Y16435
X26145Y16995
X26185Y17575
X26185Y17895
X27070Y18295
X27192Y17832
X27745Y17745
X27645Y17045
X28035Y16575
X28525Y16405
X28695Y17045
X28870Y17570
X28495Y17680
X29370Y18070
X30162Y18205
X30388Y18505
X30375Y19665
X31655Y19905
X31775Y20645
X28795Y19524
X27785Y19635
X27795Y19145
X26620Y19820
X26175Y19840
X24425Y20325
X21575Y20645
X21455Y19905
X20175Y19665
X20188Y18505
X19962Y18205
X19170Y18070
X19185Y16905
X17595Y19145
X17585Y19635
X18595Y19524
X16420Y19820
X15975Y19840
X14225Y20325
X11375Y20645
X11255Y19905
X9975Y19665
X9988Y18505
X9762Y18205
X8970Y18070
X8470Y17570
X8095Y17680
X8295Y17045
X8985Y16905
X8125Y16405
X7635Y16575
X7245Y17045
X7345Y17745
X6792Y17832
X6670Y18295
X5785Y17895
X5785Y17575
X5745Y16995
X6790Y16410
X6375Y15075
X6375Y14745
X5695Y15195
X3175Y16435
X5775Y19840
X6220Y19820
X7385Y19635
X7395Y19145
X8395Y19524
X4025Y20325
X6375Y24945
X6375Y25275
X5695Y25395
X6790Y26610
X7245Y27245
X7635Y26775
X8125Y26605
X8295Y27245
X8985Y27105
X8470Y27770
X8095Y27880
X7345Y27945
X6792Y28032
X6670Y28495
X5785Y28095
X5785Y27775
X5745Y27195
X3175Y26635
X5775Y30040
X6220Y30020
X7385Y29835
X7395Y29345
X8395Y29724
X9975Y29865
X9988Y28705
X9762Y28405
X8970Y28270
X11255Y30105
X11375Y30845
X14225Y30525
X15975Y30040
X16420Y30020
X17585Y29835
X17595Y29345
X18595Y29724
X19170Y28270
X18670Y27770
X18295Y27880
X17545Y27945
X16992Y28032
X16870Y28495
X15985Y28095
X15985Y27775
X15945Y27195
X16990Y26610
X17445Y27245
X17835Y26775
X18325Y26605
X18495Y27245
X19185Y27105
X19962Y28405
X20188Y28705
X20175Y29865
X21455Y30105
X21575Y30845
X24425Y30525
X26175Y30040
X26620Y30020
X27785Y29835
X27795Y29345
X27070Y28495
X27192Y28032
X27745Y27945
X27645Y27245
X28035Y26775
X28525Y26605
X28695Y27245
X28870Y27770
X28495Y27880
X29370Y28270
X30162Y28405
X30388Y28705
X30375Y29865
X31655Y30105
X31775Y30845
X28795Y29724
X26185Y28095
X26185Y27775
X26145Y27195
X27190Y26610
X26095Y25395
X26775Y25275
X26775Y24945
X29385Y27105
X30775Y25820
X29775Y25275
X29795Y24420
X32245Y26695
X23575Y26635
X22045Y26695
X20575Y25820
X19575Y25275
X19595Y24420
X16575Y24945
X16575Y25275
X15895Y25395
X13375Y26635
X11845Y26695
X10375Y25820
X9375Y25275
X9395Y24420
X4025Y30525
X21575Y10445
X21455Y9705
X20175Y9465
X20188Y8305
X19962Y8005
X19185Y6705
X20575Y5420
X19575Y4875
X19595Y4020
X22045Y6295
X23575Y6235
X26145Y6795
X26185Y7375
X26185Y7695
X27070Y8095
X27192Y7632
X27745Y7545
X27645Y6845
X28035Y6375
X28525Y6205
X28695Y6845
X28870Y7370
X28495Y7480
X29370Y7870
X30162Y8005
X30388Y8305
X30375Y9465
X31655Y9705
X31775Y10445
X28795Y9324
X27785Y9435
X27795Y8945
X26620Y9620
X26175Y9640
X24425Y10125
X27190Y6210
X26775Y4875
X26775Y4545
X26095Y4995
X29385Y6705
X30775Y5420
X29775Y4875
X29795Y4020
X32245Y6295
X29795Y14220
X29775Y15075
X30775Y15620
X32245Y16495
X29385Y16905
X27190Y16410
X26775Y15075
X26775Y14745
X26095Y15195
T02
X27275Y19325
X27275Y20325
X28275Y20325
X28275Y19325
X29275Y19325
X29275Y20325
X29275Y29525
X29275Y30525
X28275Y30525
X27275Y30525
X27275Y29525
X28275Y29525
X19075Y29525
X18075Y29525
X17075Y29525
X17075Y30525
X18075Y30525
X19075Y30525
X8875Y30525
X7875Y30525
X7875Y29525
X8875Y29525
X6875Y29525
X6875Y30525
X6875Y20325
X6875Y19325
X7875Y19325
X7875Y20325
X8875Y20325
X8875Y19325
X17075Y19325
X17075Y20325
X18075Y20325
X18075Y19325
X19075Y19325
X19075Y20325
X19075Y10125
X18075Y10125
X17075Y10125
X17075Y9125
X18075Y9125
X19075Y9125
X27275Y9125
X28275Y9125
X28275Y10125
X27275Y10125
X29275Y10125
X29275Y9125
X8875Y9125
X7875Y9125
X7875Y10125
X8875Y10125
X6875Y10125
X6875Y9125
T03
X4875Y3375
X5875Y3375
X6875Y3375
X7875Y3375
X8875Y3375
X9875Y3375
X10875Y3375
X15075Y3375
X16075Y3375
X17075Y3375
X18075Y3375
X19075Y3375
X20075Y3375
X21075Y3375
X25275Y3375
X26275Y3375
X27275Y3375
X28275Y3375
X29275Y3375
X30275Y3375
X31275Y3375
X31275Y13575
X30275Y13575
X29275Y13575
X28275Y13575
X27275Y13575
X26275Y13575
X25275Y13575
X21075Y13575
X20075Y13575
X19075Y13575
X18075Y13575
X17075Y13575
X16075Y13575
X15075Y13575
X10875Y13575
X9875Y13575
X8875Y13575
X7875Y13575
X6875Y13575
X5875Y13575
X4875Y13575
X4875Y23775
X5875Y23775
X6875Y23775
X7875Y23775
X8875Y23775
X9875Y23775
X10875Y23775
X15075Y23775
X16075Y23775
X17075Y23775
X18075Y23775
X19075Y23775
X20075Y23775
X21075Y23775
X25275Y23775
X26275Y23775
X27275Y23775
X28275Y23775
X29275Y23775
X30275Y23775
X31275Y23775
T04
X32275Y22075
X24275Y22075
X22075Y22075
X14075Y22075
X11875Y22075
X3875Y22075
X3875Y32275
X11875Y32275
X14075Y32275
X22075Y32275
X24275Y32275
X32275Y32275
X32275Y11875
X24275Y11875
X22075Y11875
X14075Y11875
X11875Y11875
X3875Y11875
M30
