%
M48
M72
T01C0.0120
T02C0.0200
T03C0.0400
T04C0.1300
%
T01
X5375Y4375
X6375Y4225
X6375Y4545
X6375Y4875
X6790Y6210
X7245Y6845
X7345Y7545
X6792Y7632
X6295Y8145
X5745Y8595
X5785Y7445
X5785Y7125
X5875Y6625
X4395Y7695
X3275Y6125
X6375Y9865
X8395Y9324
X9975Y9465
X9975Y9785
X9988Y10105
X9988Y9145
X9988Y8305
X9762Y8005
X8470Y7370
X8095Y7480
X8295Y6845
X8985Y6705
X8125Y6205
X7635Y6375
X8625Y4875
X8375Y4025
X9395Y4020
X11545Y6545
X13475Y6125
X14595Y7695
X15985Y7445
X15985Y7125
X16075Y6625
X16990Y6210
X17445Y6845
X17545Y7545
X18295Y7480
X18670Y7370
X18495Y6845
X18325Y6205
X17835Y6375
X18825Y4875
X18575Y4025
X19595Y4020
X19185Y6705
X19962Y8005
X20188Y8305
X20188Y9145
X20175Y9465
X20175Y9785
X20188Y10105
X21575Y10445
X24425Y10125
X26145Y8595
X26695Y8145
X27192Y7632
X27745Y7545
X27645Y6845
X28035Y6375
X28525Y6205
X28695Y6845
X28870Y7370
X28495Y7480
X29385Y6705
X30162Y8005
X30388Y8305
X30388Y9145
X30375Y9465
X30375Y9785
X30388Y10105
X31775Y10445
X28795Y9324
X26775Y9865
X24795Y7695
X26185Y7445
X26185Y7125
X26275Y6625
X27190Y6210
X26775Y4875
X26775Y4545
X26775Y4225
X25775Y4375
X23675Y6125
X21745Y6545
X18595Y9324
X16575Y9865
X15945Y8595
X16495Y8145
X16992Y7632
X14225Y10125
X11375Y10445
X9395Y14220
X8375Y14225
X8625Y15075
X8125Y16405
X7635Y16575
X7245Y17045
X7345Y17745
X6792Y17832
X6295Y18345
X5745Y18795
X5785Y17645
X5785Y17325
X5875Y16825
X6790Y16410
X6375Y15075
X6375Y14745
X6375Y14425
X5375Y14575
X3275Y16325
X4395Y17895
X6375Y20065
X8395Y19524
X9975Y19665
X9975Y19985
X9988Y20305
X9988Y19345
X9988Y18505
X9762Y18205
X8470Y17570
X8095Y17680
X8295Y17045
X8985Y16905
X11545Y16745
X13475Y16325
X14595Y17895
X15985Y17645
X15985Y17325
X16075Y16825
X16990Y16410
X17445Y17045
X17835Y16575
X18325Y16405
X18495Y17045
X18670Y17570
X18295Y17680
X17545Y17745
X16992Y17832
X16495Y18345
X15945Y18795
X16575Y20065
X18595Y19524
X19962Y18205
X20188Y18505
X20188Y19345
X20175Y19665
X20175Y19985
X20188Y20305
X21575Y20645
X24425Y20325
X26145Y18795
X26695Y18345
X27192Y17832
X27745Y17745
X27645Y17045
X28035Y16575
X28525Y16405
X28695Y17045
X28870Y17570
X28495Y17680
X29385Y16905
X30162Y18205
X30388Y18505
X30388Y19345
X30375Y19665
X30375Y19985
X30388Y20305
X31775Y20645
X28795Y19524
X26775Y20065
X24795Y17895
X26185Y17645
X26185Y17325
X26275Y16825
X27190Y16410
X26775Y15075
X26775Y14745
X26775Y14425
X25775Y14575
X23675Y16325
X21745Y16745
X19185Y16905
X18825Y15075
X18575Y14225
X19595Y14220
X16575Y14425
X16575Y14745
X16575Y15075
X15575Y14575
X14225Y20325
X11375Y20645
X9395Y24420
X8375Y24425
X8625Y25275
X8125Y26605
X7635Y26775
X7245Y27245
X6790Y26610
X5875Y27025
X5785Y27525
X5785Y27845
X6295Y28545
X5745Y28995
X6375Y30265
X8395Y29724
X9975Y29865
X9975Y30185
X9988Y30505
X9988Y29545
X9988Y28705
X9762Y28405
X8470Y27770
X8095Y27880
X8295Y27245
X8985Y27105
X7345Y27945
X6792Y28032
X4395Y28095
X3275Y26525
X5375Y24775
X6375Y24625
X6375Y24945
X6375Y25275
X11545Y26945
X13475Y26525
X14595Y28095
X15985Y27845
X15985Y27525
X16075Y27025
X16990Y26610
X17445Y27245
X17835Y26775
X18325Y26605
X18495Y27245
X18670Y27770
X18295Y27880
X17545Y27945
X16992Y28032
X16495Y28545
X15945Y28995
X16575Y30265
X18595Y29724
X20175Y29865
X20175Y30185
X20188Y30505
X20188Y29545
X20188Y28705
X19962Y28405
X19185Y27105
X18825Y25275
X18575Y24425
X19595Y24420
X16575Y24625
X16575Y24945
X16575Y25275
X15575Y24775
X21745Y26945
X23675Y26525
X24795Y28095
X26145Y28995
X26695Y28545
X27192Y28032
X27745Y27945
X27645Y27245
X28035Y26775
X28525Y26605
X28695Y27245
X28870Y27770
X28495Y27880
X29385Y27105
X30162Y28405
X30388Y28705
X30388Y29545
X30375Y29865
X30375Y30185
X30388Y30505
X31775Y30845
X28795Y29724
X26775Y30265
X24425Y30525
X21575Y30845
X26185Y27845
X26185Y27525
X26275Y27025
X27190Y26610
X26775Y25275
X26775Y24945
X26775Y24625
X25775Y24775
X28775Y24425
X29025Y25275
X29795Y24420
X31945Y26945
X31945Y16745
X29795Y14220
X28775Y14225
X29025Y15075
X31945Y6545
X29795Y4020
X28775Y4025
X29025Y4875
X16575Y4875
X16575Y4545
X16575Y4225
X15575Y4375
X4025Y10125
X4025Y20325
X4025Y30525
X11375Y30845
X14225Y30525
T02
X17075Y30525
X18075Y30525
X19075Y30525
X19075Y29525
X18075Y29525
X17075Y29525
X8875Y29525
X7875Y29525
X7875Y30525
X8875Y30525
X6875Y30525
X6875Y29525
X6875Y20325
X6875Y19325
X7875Y19325
X7875Y20325
X8875Y20325
X8875Y19325
X17075Y19325
X17075Y20325
X18075Y20325
X18075Y19325
X19075Y19325
X19075Y20325
X27275Y20325
X27275Y19325
X28275Y19325
X28275Y20325
X29275Y20325
X29275Y19325
X29275Y10125
X29275Y9125
X28275Y9125
X27275Y9125
X27275Y10125
X28275Y10125
X19075Y10125
X18075Y10125
X17075Y10125
X17075Y9125
X18075Y9125
X19075Y9125
X8875Y9125
X7875Y9125
X7875Y10125
X8875Y10125
X6875Y10125
X6875Y9125
X27275Y29525
X28275Y29525
X28275Y30525
X27275Y30525
X29275Y30525
X29275Y29525
T03
X4875Y3375
X5875Y3375
X6875Y3375
X7875Y3375
X8875Y3375
X9875Y3375
X10875Y3375
X15075Y3375
X16075Y3375
X17075Y3375
X18075Y3375
X19075Y3375
X20075Y3375
X21075Y3375
X25275Y3375
X26275Y3375
X27275Y3375
X28275Y3375
X29275Y3375
X30275Y3375
X31275Y3375
X31275Y13575
X30275Y13575
X29275Y13575
X28275Y13575
X27275Y13575
X26275Y13575
X25275Y13575
X21075Y13575
X20075Y13575
X19075Y13575
X18075Y13575
X17075Y13575
X16075Y13575
X15075Y13575
X10875Y13575
X9875Y13575
X8875Y13575
X7875Y13575
X6875Y13575
X5875Y13575
X4875Y13575
X4875Y23775
X5875Y23775
X6875Y23775
X7875Y23775
X8875Y23775
X9875Y23775
X10875Y23775
X15075Y23775
X16075Y23775
X17075Y23775
X18075Y23775
X19075Y23775
X20075Y23775
X21075Y23775
X25275Y23775
X26275Y23775
X27275Y23775
X28275Y23775
X29275Y23775
X30275Y23775
X31275Y23775
T04
X32275Y22075
X24275Y22075
X22075Y22075
X14075Y22075
X11875Y22075
X3875Y22075
X3875Y32275
X11875Y32275
X14075Y32275
X22075Y32275
X24275Y32275
X32275Y32275
X32275Y11875
X24275Y11875
X22075Y11875
X14075Y11875
X11875Y11875
X3875Y11875
M30
