G75*
%MOIN*%
%OFA0B0*%
%FSLAX25Y25*%
%IPPOS*%
%LPD*%
%AMOC8*
5,1,8,0,0,1.08239X$1,22.5*
%
%ADD10R,0.03937X0.04331*%
%ADD11R,0.07874X0.04724*%
%ADD12R,0.05315X0.02362*%
%ADD13C,0.01181*%
%ADD14R,0.03543X0.03937*%
%ADD15R,0.08800X0.08100*%
%ADD16R,0.02400X0.08700*%
D10*
X0048750Y0055404D03*
X0048750Y0062096D03*
X0063750Y0062096D03*
X0063750Y0055404D03*
X0063750Y0070404D03*
X0063750Y0077096D03*
X0063750Y0085404D03*
X0057750Y0085404D03*
X0057750Y0092096D03*
X0063750Y0092096D03*
X0093750Y0092096D03*
X0093750Y0085404D03*
X0093750Y0077096D03*
X0093750Y0070404D03*
X0093750Y0062096D03*
X0093750Y0055404D03*
X0108750Y0055404D03*
X0108750Y0062096D03*
X0150750Y0062096D03*
X0150750Y0055404D03*
X0165750Y0055404D03*
X0165750Y0062096D03*
X0165750Y0070404D03*
X0165750Y0077096D03*
X0165750Y0085404D03*
X0165750Y0092096D03*
X0159750Y0092096D03*
X0159750Y0085404D03*
X0195750Y0085404D03*
X0195750Y0092096D03*
X0195750Y0077096D03*
X0195750Y0070404D03*
X0195750Y0062096D03*
X0195750Y0055404D03*
X0210750Y0055404D03*
X0210750Y0062096D03*
X0252750Y0062096D03*
X0252750Y0055404D03*
X0267750Y0055404D03*
X0267750Y0062096D03*
X0267750Y0070404D03*
X0267750Y0077096D03*
X0267750Y0085404D03*
X0261750Y0085404D03*
X0261750Y0092096D03*
X0267750Y0092096D03*
X0297750Y0092096D03*
X0297750Y0085404D03*
X0297750Y0077096D03*
X0297750Y0070404D03*
X0297750Y0062096D03*
X0297750Y0055404D03*
X0312750Y0055404D03*
X0312750Y0062096D03*
X0312750Y0157404D03*
X0312750Y0164096D03*
X0297750Y0164096D03*
X0297750Y0157404D03*
X0297750Y0172404D03*
X0297750Y0179096D03*
X0297750Y0187404D03*
X0297750Y0194096D03*
X0267750Y0194096D03*
X0261750Y0194096D03*
X0261750Y0187404D03*
X0267750Y0187404D03*
X0267750Y0179096D03*
X0267750Y0172404D03*
X0267750Y0164096D03*
X0267750Y0157404D03*
X0252750Y0157404D03*
X0252750Y0164096D03*
X0210750Y0164096D03*
X0210750Y0157404D03*
X0195750Y0157404D03*
X0195750Y0164096D03*
X0195750Y0172404D03*
X0195750Y0179096D03*
X0195750Y0187404D03*
X0195750Y0194096D03*
X0165750Y0194096D03*
X0159750Y0194096D03*
X0159750Y0187404D03*
X0165750Y0187404D03*
X0165750Y0179096D03*
X0165750Y0172404D03*
X0165750Y0164096D03*
X0165750Y0157404D03*
X0150750Y0157404D03*
X0150750Y0164096D03*
X0108750Y0164096D03*
X0108750Y0157404D03*
X0093750Y0157404D03*
X0093750Y0164096D03*
X0093750Y0172404D03*
X0093750Y0179096D03*
X0093750Y0187404D03*
X0093750Y0194096D03*
X0063750Y0194096D03*
X0057750Y0194096D03*
X0057750Y0187404D03*
X0063750Y0187404D03*
X0063750Y0179096D03*
X0063750Y0172404D03*
X0063750Y0164096D03*
X0063750Y0157404D03*
X0048750Y0157404D03*
X0048750Y0164096D03*
X0048750Y0259404D03*
X0048750Y0266096D03*
X0063750Y0266096D03*
X0063750Y0259404D03*
X0063750Y0274404D03*
X0063750Y0281096D03*
X0063750Y0289404D03*
X0057750Y0289404D03*
X0057750Y0296096D03*
X0063750Y0296096D03*
X0093750Y0296096D03*
X0093750Y0289404D03*
X0093750Y0281096D03*
X0093750Y0274404D03*
X0093750Y0266096D03*
X0093750Y0259404D03*
X0108750Y0259404D03*
X0108750Y0266096D03*
X0150750Y0266096D03*
X0150750Y0259404D03*
X0165750Y0259404D03*
X0165750Y0266096D03*
X0165750Y0274404D03*
X0165750Y0281096D03*
X0165750Y0289404D03*
X0165750Y0296096D03*
X0159750Y0296096D03*
X0159750Y0289404D03*
X0195750Y0289404D03*
X0195750Y0296096D03*
X0195750Y0281096D03*
X0195750Y0274404D03*
X0195750Y0266096D03*
X0195750Y0259404D03*
X0210750Y0259404D03*
X0210750Y0266096D03*
X0252750Y0266096D03*
X0252750Y0259404D03*
X0267750Y0259404D03*
X0267750Y0266096D03*
X0267750Y0274404D03*
X0267750Y0281096D03*
X0267750Y0289404D03*
X0261750Y0289404D03*
X0261750Y0296096D03*
X0267750Y0296096D03*
X0297750Y0296096D03*
X0297750Y0289404D03*
X0297750Y0281096D03*
X0297750Y0274404D03*
X0297750Y0266096D03*
X0297750Y0259404D03*
X0312750Y0259404D03*
X0312750Y0266096D03*
D11*
X0327219Y0271726D03*
X0327219Y0293774D03*
X0238281Y0293774D03*
X0225219Y0293774D03*
X0225219Y0271726D03*
X0238281Y0271726D03*
X0238281Y0191774D03*
X0225219Y0191774D03*
X0225219Y0169726D03*
X0238281Y0169726D03*
X0238281Y0089774D03*
X0225219Y0089774D03*
X0225219Y0067726D03*
X0238281Y0067726D03*
X0327219Y0067726D03*
X0327219Y0089774D03*
X0327219Y0169726D03*
X0327219Y0191774D03*
X0136281Y0191774D03*
X0123219Y0191774D03*
X0123219Y0169726D03*
X0136281Y0169726D03*
X0136281Y0089774D03*
X0123219Y0089774D03*
X0123219Y0067726D03*
X0136281Y0067726D03*
X0034281Y0067726D03*
X0034281Y0089774D03*
X0034281Y0169726D03*
X0034281Y0191774D03*
X0034281Y0271726D03*
X0034281Y0293774D03*
X0123219Y0293774D03*
X0136281Y0293774D03*
X0136281Y0271726D03*
X0123219Y0271726D03*
D12*
X0108750Y0276844D03*
X0108750Y0280781D03*
X0108750Y0284719D03*
X0108750Y0288656D03*
X0150750Y0288656D03*
X0150750Y0284719D03*
X0150750Y0280781D03*
X0150750Y0276844D03*
X0210750Y0276844D03*
X0210750Y0280781D03*
X0210750Y0284719D03*
X0210750Y0288656D03*
X0252750Y0288656D03*
X0252750Y0284719D03*
X0252750Y0280781D03*
X0252750Y0276844D03*
X0312750Y0276844D03*
X0312750Y0280781D03*
X0312750Y0284719D03*
X0312750Y0288656D03*
X0312750Y0186656D03*
X0312750Y0182719D03*
X0312750Y0178781D03*
X0312750Y0174844D03*
X0252750Y0174844D03*
X0252750Y0178781D03*
X0252750Y0182719D03*
X0252750Y0186656D03*
X0210750Y0186656D03*
X0210750Y0182719D03*
X0210750Y0178781D03*
X0210750Y0174844D03*
X0150750Y0174844D03*
X0150750Y0178781D03*
X0150750Y0182719D03*
X0150750Y0186656D03*
X0108750Y0186656D03*
X0108750Y0182719D03*
X0108750Y0178781D03*
X0108750Y0174844D03*
X0048750Y0174844D03*
X0048750Y0178781D03*
X0048750Y0182719D03*
X0048750Y0186656D03*
X0048750Y0276844D03*
X0048750Y0280781D03*
X0048750Y0284719D03*
X0048750Y0288656D03*
X0048750Y0084656D03*
X0048750Y0080719D03*
X0048750Y0076781D03*
X0048750Y0072844D03*
X0108750Y0072844D03*
X0108750Y0076781D03*
X0108750Y0080719D03*
X0108750Y0084656D03*
X0150750Y0084656D03*
X0150750Y0080719D03*
X0150750Y0076781D03*
X0150750Y0072844D03*
X0210750Y0072844D03*
X0210750Y0076781D03*
X0210750Y0080719D03*
X0210750Y0084656D03*
X0252750Y0084656D03*
X0252750Y0080719D03*
X0252750Y0076781D03*
X0252750Y0072844D03*
X0312750Y0072844D03*
X0312750Y0076781D03*
X0312750Y0080719D03*
X0312750Y0084656D03*
D13*
X0317919Y0060128D02*
X0317919Y0057372D01*
X0317919Y0060128D02*
X0320675Y0060128D01*
X0320675Y0057372D01*
X0317919Y0057372D01*
X0317919Y0058552D02*
X0320675Y0058552D01*
X0320675Y0059732D02*
X0317919Y0059732D01*
X0324825Y0060128D02*
X0324825Y0057372D01*
X0324825Y0060128D02*
X0327581Y0060128D01*
X0327581Y0057372D01*
X0324825Y0057372D01*
X0324825Y0058552D02*
X0327581Y0058552D01*
X0327581Y0059732D02*
X0324825Y0059732D01*
X0247581Y0060128D02*
X0247581Y0057372D01*
X0244825Y0057372D01*
X0244825Y0060128D01*
X0247581Y0060128D01*
X0247581Y0058552D02*
X0244825Y0058552D01*
X0244825Y0059732D02*
X0247581Y0059732D01*
X0240675Y0060128D02*
X0240675Y0057372D01*
X0237919Y0057372D01*
X0237919Y0060128D01*
X0240675Y0060128D01*
X0240675Y0058552D02*
X0237919Y0058552D01*
X0237919Y0059732D02*
X0240675Y0059732D01*
X0222825Y0060128D02*
X0222825Y0057372D01*
X0222825Y0060128D02*
X0225581Y0060128D01*
X0225581Y0057372D01*
X0222825Y0057372D01*
X0222825Y0058552D02*
X0225581Y0058552D01*
X0225581Y0059732D02*
X0222825Y0059732D01*
X0215919Y0060128D02*
X0215919Y0057372D01*
X0215919Y0060128D02*
X0218675Y0060128D01*
X0218675Y0057372D01*
X0215919Y0057372D01*
X0215919Y0058552D02*
X0218675Y0058552D01*
X0218675Y0059732D02*
X0215919Y0059732D01*
X0145581Y0060128D02*
X0145581Y0057372D01*
X0142825Y0057372D01*
X0142825Y0060128D01*
X0145581Y0060128D01*
X0145581Y0058552D02*
X0142825Y0058552D01*
X0142825Y0059732D02*
X0145581Y0059732D01*
X0138675Y0060128D02*
X0138675Y0057372D01*
X0135919Y0057372D01*
X0135919Y0060128D01*
X0138675Y0060128D01*
X0138675Y0058552D02*
X0135919Y0058552D01*
X0135919Y0059732D02*
X0138675Y0059732D01*
X0120825Y0060128D02*
X0120825Y0057372D01*
X0120825Y0060128D02*
X0123581Y0060128D01*
X0123581Y0057372D01*
X0120825Y0057372D01*
X0120825Y0058552D02*
X0123581Y0058552D01*
X0123581Y0059732D02*
X0120825Y0059732D01*
X0113919Y0060128D02*
X0113919Y0057372D01*
X0113919Y0060128D02*
X0116675Y0060128D01*
X0116675Y0057372D01*
X0113919Y0057372D01*
X0113919Y0058552D02*
X0116675Y0058552D01*
X0116675Y0059732D02*
X0113919Y0059732D01*
X0043581Y0060128D02*
X0043581Y0057372D01*
X0040825Y0057372D01*
X0040825Y0060128D01*
X0043581Y0060128D01*
X0043581Y0058552D02*
X0040825Y0058552D01*
X0040825Y0059732D02*
X0043581Y0059732D01*
X0036675Y0060128D02*
X0036675Y0057372D01*
X0033919Y0057372D01*
X0033919Y0060128D01*
X0036675Y0060128D01*
X0036675Y0058552D02*
X0033919Y0058552D01*
X0033919Y0059732D02*
X0036675Y0059732D01*
X0036675Y0159372D02*
X0036675Y0162128D01*
X0036675Y0159372D02*
X0033919Y0159372D01*
X0033919Y0162128D01*
X0036675Y0162128D01*
X0036675Y0160552D02*
X0033919Y0160552D01*
X0033919Y0161732D02*
X0036675Y0161732D01*
X0043581Y0162128D02*
X0043581Y0159372D01*
X0040825Y0159372D01*
X0040825Y0162128D01*
X0043581Y0162128D01*
X0043581Y0160552D02*
X0040825Y0160552D01*
X0040825Y0161732D02*
X0043581Y0161732D01*
X0113919Y0162128D02*
X0113919Y0159372D01*
X0113919Y0162128D02*
X0116675Y0162128D01*
X0116675Y0159372D01*
X0113919Y0159372D01*
X0113919Y0160552D02*
X0116675Y0160552D01*
X0116675Y0161732D02*
X0113919Y0161732D01*
X0120825Y0162128D02*
X0120825Y0159372D01*
X0120825Y0162128D02*
X0123581Y0162128D01*
X0123581Y0159372D01*
X0120825Y0159372D01*
X0120825Y0160552D02*
X0123581Y0160552D01*
X0123581Y0161732D02*
X0120825Y0161732D01*
X0138675Y0162128D02*
X0138675Y0159372D01*
X0135919Y0159372D01*
X0135919Y0162128D01*
X0138675Y0162128D01*
X0138675Y0160552D02*
X0135919Y0160552D01*
X0135919Y0161732D02*
X0138675Y0161732D01*
X0145581Y0162128D02*
X0145581Y0159372D01*
X0142825Y0159372D01*
X0142825Y0162128D01*
X0145581Y0162128D01*
X0145581Y0160552D02*
X0142825Y0160552D01*
X0142825Y0161732D02*
X0145581Y0161732D01*
X0215919Y0162128D02*
X0215919Y0159372D01*
X0215919Y0162128D02*
X0218675Y0162128D01*
X0218675Y0159372D01*
X0215919Y0159372D01*
X0215919Y0160552D02*
X0218675Y0160552D01*
X0218675Y0161732D02*
X0215919Y0161732D01*
X0222825Y0162128D02*
X0222825Y0159372D01*
X0222825Y0162128D02*
X0225581Y0162128D01*
X0225581Y0159372D01*
X0222825Y0159372D01*
X0222825Y0160552D02*
X0225581Y0160552D01*
X0225581Y0161732D02*
X0222825Y0161732D01*
X0240675Y0162128D02*
X0240675Y0159372D01*
X0237919Y0159372D01*
X0237919Y0162128D01*
X0240675Y0162128D01*
X0240675Y0160552D02*
X0237919Y0160552D01*
X0237919Y0161732D02*
X0240675Y0161732D01*
X0247581Y0162128D02*
X0247581Y0159372D01*
X0244825Y0159372D01*
X0244825Y0162128D01*
X0247581Y0162128D01*
X0247581Y0160552D02*
X0244825Y0160552D01*
X0244825Y0161732D02*
X0247581Y0161732D01*
X0317919Y0162128D02*
X0317919Y0159372D01*
X0317919Y0162128D02*
X0320675Y0162128D01*
X0320675Y0159372D01*
X0317919Y0159372D01*
X0317919Y0160552D02*
X0320675Y0160552D01*
X0320675Y0161732D02*
X0317919Y0161732D01*
X0324825Y0162128D02*
X0324825Y0159372D01*
X0324825Y0162128D02*
X0327581Y0162128D01*
X0327581Y0159372D01*
X0324825Y0159372D01*
X0324825Y0160552D02*
X0327581Y0160552D01*
X0327581Y0161732D02*
X0324825Y0161732D01*
X0324825Y0261372D02*
X0324825Y0264128D01*
X0327581Y0264128D01*
X0327581Y0261372D01*
X0324825Y0261372D01*
X0324825Y0262552D02*
X0327581Y0262552D01*
X0327581Y0263732D02*
X0324825Y0263732D01*
X0317919Y0264128D02*
X0317919Y0261372D01*
X0317919Y0264128D02*
X0320675Y0264128D01*
X0320675Y0261372D01*
X0317919Y0261372D01*
X0317919Y0262552D02*
X0320675Y0262552D01*
X0320675Y0263732D02*
X0317919Y0263732D01*
X0247581Y0264128D02*
X0247581Y0261372D01*
X0244825Y0261372D01*
X0244825Y0264128D01*
X0247581Y0264128D01*
X0247581Y0262552D02*
X0244825Y0262552D01*
X0244825Y0263732D02*
X0247581Y0263732D01*
X0240675Y0264128D02*
X0240675Y0261372D01*
X0237919Y0261372D01*
X0237919Y0264128D01*
X0240675Y0264128D01*
X0240675Y0262552D02*
X0237919Y0262552D01*
X0237919Y0263732D02*
X0240675Y0263732D01*
X0222825Y0264128D02*
X0222825Y0261372D01*
X0222825Y0264128D02*
X0225581Y0264128D01*
X0225581Y0261372D01*
X0222825Y0261372D01*
X0222825Y0262552D02*
X0225581Y0262552D01*
X0225581Y0263732D02*
X0222825Y0263732D01*
X0215919Y0264128D02*
X0215919Y0261372D01*
X0215919Y0264128D02*
X0218675Y0264128D01*
X0218675Y0261372D01*
X0215919Y0261372D01*
X0215919Y0262552D02*
X0218675Y0262552D01*
X0218675Y0263732D02*
X0215919Y0263732D01*
X0145581Y0264128D02*
X0145581Y0261372D01*
X0142825Y0261372D01*
X0142825Y0264128D01*
X0145581Y0264128D01*
X0145581Y0262552D02*
X0142825Y0262552D01*
X0142825Y0263732D02*
X0145581Y0263732D01*
X0138675Y0264128D02*
X0138675Y0261372D01*
X0135919Y0261372D01*
X0135919Y0264128D01*
X0138675Y0264128D01*
X0138675Y0262552D02*
X0135919Y0262552D01*
X0135919Y0263732D02*
X0138675Y0263732D01*
X0120825Y0264128D02*
X0120825Y0261372D01*
X0120825Y0264128D02*
X0123581Y0264128D01*
X0123581Y0261372D01*
X0120825Y0261372D01*
X0120825Y0262552D02*
X0123581Y0262552D01*
X0123581Y0263732D02*
X0120825Y0263732D01*
X0113919Y0264128D02*
X0113919Y0261372D01*
X0113919Y0264128D02*
X0116675Y0264128D01*
X0116675Y0261372D01*
X0113919Y0261372D01*
X0113919Y0262552D02*
X0116675Y0262552D01*
X0116675Y0263732D02*
X0113919Y0263732D01*
X0043581Y0264128D02*
X0043581Y0261372D01*
X0040825Y0261372D01*
X0040825Y0264128D01*
X0043581Y0264128D01*
X0043581Y0262552D02*
X0040825Y0262552D01*
X0040825Y0263732D02*
X0043581Y0263732D01*
X0036675Y0264128D02*
X0036675Y0261372D01*
X0033919Y0261372D01*
X0033919Y0264128D01*
X0036675Y0264128D01*
X0036675Y0262552D02*
X0033919Y0262552D01*
X0033919Y0263732D02*
X0036675Y0263732D01*
D14*
X0032179Y0302100D03*
X0032179Y0308400D03*
X0048321Y0308400D03*
X0048321Y0302100D03*
X0134179Y0302100D03*
X0134179Y0308400D03*
X0150321Y0308400D03*
X0150321Y0302100D03*
X0236179Y0302100D03*
X0236179Y0308400D03*
X0252321Y0308400D03*
X0252321Y0302100D03*
X0252321Y0206400D03*
X0252321Y0200100D03*
X0236179Y0200100D03*
X0236179Y0206400D03*
X0150321Y0206400D03*
X0150321Y0200100D03*
X0134179Y0200100D03*
X0134179Y0206400D03*
X0048321Y0206400D03*
X0048321Y0200100D03*
X0032179Y0200100D03*
X0032179Y0206400D03*
X0032179Y0104400D03*
X0032179Y0098100D03*
X0048321Y0098100D03*
X0048321Y0104400D03*
X0134179Y0104400D03*
X0134179Y0098100D03*
X0150321Y0098100D03*
X0150321Y0104400D03*
X0236179Y0104400D03*
X0236179Y0098100D03*
X0252321Y0098100D03*
X0252321Y0104400D03*
D15*
X0220750Y0098800D03*
X0118750Y0098800D03*
X0118750Y0200800D03*
X0220750Y0200800D03*
X0322750Y0200800D03*
X0322750Y0302800D03*
X0220750Y0302800D03*
X0118750Y0302800D03*
X0322750Y0098800D03*
D16*
X0290250Y0082050D03*
X0285250Y0082050D03*
X0280250Y0082050D03*
X0275250Y0082050D03*
X0275250Y0055550D03*
X0280250Y0055550D03*
X0285250Y0055550D03*
X0290250Y0055550D03*
X0188250Y0055550D03*
X0183250Y0055550D03*
X0178250Y0055550D03*
X0173250Y0055550D03*
X0173250Y0082050D03*
X0178250Y0082050D03*
X0183250Y0082050D03*
X0188250Y0082050D03*
X0188250Y0157550D03*
X0183250Y0157550D03*
X0178250Y0157550D03*
X0173250Y0157550D03*
X0173250Y0184050D03*
X0178250Y0184050D03*
X0183250Y0184050D03*
X0188250Y0184050D03*
X0188250Y0259550D03*
X0183250Y0259550D03*
X0178250Y0259550D03*
X0173250Y0259550D03*
X0173250Y0286050D03*
X0178250Y0286050D03*
X0183250Y0286050D03*
X0188250Y0286050D03*
X0275250Y0286050D03*
X0280250Y0286050D03*
X0285250Y0286050D03*
X0290250Y0286050D03*
X0290250Y0259550D03*
X0285250Y0259550D03*
X0280250Y0259550D03*
X0275250Y0259550D03*
X0275250Y0184050D03*
X0280250Y0184050D03*
X0285250Y0184050D03*
X0290250Y0184050D03*
X0290250Y0157550D03*
X0285250Y0157550D03*
X0280250Y0157550D03*
X0275250Y0157550D03*
X0086250Y0157550D03*
X0081250Y0157550D03*
X0076250Y0157550D03*
X0071250Y0157550D03*
X0071250Y0184050D03*
X0076250Y0184050D03*
X0081250Y0184050D03*
X0086250Y0184050D03*
X0086250Y0259550D03*
X0081250Y0259550D03*
X0076250Y0259550D03*
X0071250Y0259550D03*
X0071250Y0286050D03*
X0076250Y0286050D03*
X0081250Y0286050D03*
X0086250Y0286050D03*
X0086250Y0082050D03*
X0081250Y0082050D03*
X0076250Y0082050D03*
X0071250Y0082050D03*
X0071250Y0055550D03*
X0076250Y0055550D03*
X0081250Y0055550D03*
X0086250Y0055550D03*
M02*
